<?xml version="1.0" standalone="no"?>
<svg
  width="600"
  height="600"
  viewBox="0 0 600 600"
  xmlns="http://www.w3.org/2000/svg"
>
  <g transform="translate(300,300)">
    <path d="M147.6,-231.6C188.8,-203.1,218.1,-158.1,237.7,-110C257.3,-62,267.2,-11.1,260.4,37.5C253.5,86.2,229.9,132.5,194.3,161.8C158.7,191.1,111,203.5,65.4,211.9C19.8,220.4,-23.8,224.8,-64.9,215.4C-106.1,205.9,-144.9,182.5,-170.6,149.6C-196.3,116.7,-209,74.3,-220.1,28.7C-231.2,-16.8,-240.7,-65.5,-224.2,-102.7C-207.7,-139.8,-165.2,-165.4,-123.5,-193.7C-81.8,-222,-40.9,-253,6.1,-262.5C53.2,-272.1,106.3,-260.1,147.6,-231.6Z" fill="#ffc2f6" />
  </g>
</svg>
  